<?xml version="1.0" standalone="no"?>
<!DOCTYPE svg PUBLIC "-//W3C//DTD SVG 20010904//EN"
 "http://www.w3.org/TR/2001/REC-SVG-20010904/DTD/svg10.dtd">
<svg version="1.0" xmlns="http://www.w3.org/2000/svg"
 width="512.000000pt" height="512.000000pt" viewBox="0 0 512.000000 512.000000"
 preserveAspectRatio="xMidYMid meet">

<g transform="translate(0.000000,512.000000) scale(0.100000,-0.100000)"
fill="#fff" stroke="none">
<path d="M2850 5104 c-54 -23 -794 -767 -819 -824 -20 -43 -21 -64 -21 -570
l0 -525 -908 -910 c-500 -500 -925 -933 -946 -962 -47 -66 -109 -199 -132
-283 -28 -100 -25 -310 4 -413 42 -145 114 -270 216 -373 103 -102 228 -174
373 -216 112 -32 314 -32 426 0 107 30 220 89 308 160 41 33 470 456 954 941
l880 881 525 0 c491 0 528 2 565 19 27 13 172 151 436 417 325 327 397 405
403 433 3 18 6 331 6 695 0 621 -2 663 -19 702 -25 54 -84 102 -137 110 -88
13 -89 12 -525 -423 -224 -223 -411 -404 -416 -402 -12 5 -443 452 -443 459 1
3 174 185 387 405 273 283 391 413 405 444 36 79 8 168 -70 222 l-36 24 -690
2 c-599 2 -696 0 -726 -13z m723 -561 c-440 -457 -433 -449 -433 -525 1 -69
34 -110 404 -493 375 -390 403 -414 477 -415 79 0 124 36 434 353 l295 302 0
-385 0 -385 -307 -307 -308 -307 -540 -3 c-433 -2 -545 -6 -565 -17 -14 -7
-455 -442 -980 -966 -1057 -1054 -996 -1000 -1156 -1026 -306 -49 -576 224
-524 529 26 159 -29 96 1024 1152 525 525 960 966 967 980 11 20 15 132 17
565 l3 540 307 308 307 307 389 0 388 0 -199 -207z"/>
<path d="M1025 1261 c-47 -22 -269 -244 -284 -285 -24 -60 -1 -157 45 -198 28
-25 88 -48 124 -48 58 0 105 30 219 143 107 106 150 167 151 212 0 71 -48 146
-115 176 -51 23 -90 23 -140 0z"/>
</g>
</svg>
